{"glyphs":{":":{"x_min":0,"x_max":278,"ha":278,"o":"m 140 471 q 165 471 182 454 q 199 437 199 412 q 199 387 182 370 q 166 353 141 353 q 116 353 98 370 q 81 388 81 412 q 81 436 98 454 q 116 471 140 471 z m 141 106 q 166 106 183 89 q 200 72 200 47 q 200 21 183 4 q 166 -14 141 -14 q 117 -14 99 4 q 81 21 81 46 q 81 71 99 89 q 116 106 141 106 z"},"$":{"x_min":0,"x_max":556,"ha":556,"o":"m 264 736 l 305 736 l 305 689 q 336 689 384 673 q 432 657 458 623 q 484 589 484 547 q 484 516 468 497 q 452 479 428 479 q 406 479 391 494 q 376 508 376 530 q 376 553 394 575 q 412 599 412 606 q 412 620 389 633 q 356 653 305 655 l 305 391 q 412 354 459 298 q 506 243 506 170 q 506 92 454 42 q 401 -7 305 -14 l 305 -136 l 264 -136 l 264 -14 q 206 -14 160 6 q 115 26 93 59 q 71 92 71 131 q 71 166 89 187 q 106 208 131 208 q 155 208 170 192 q 186 175 186 148 q 186 120 164 101 q 138 79 138 71 q 138 56 165 42 q 202 21 264 20 l 264 298 q 78 358 78 504 q 78 581 128 632 q 179 684 264 689 z m 264 407 l 264 655 q 202 651 167 618 q 133 584 133 537 q 133 497 159 466 q 186 436 264 407 z m 305 282 l 305 20 q 372 26 409 61 q 445 95 445 145 q 445 188 416 221 q 387 253 305 282 z"},"?":{"x_min":0,"x_max":444,"ha":444,"o":"m 216 211 l 190 211 q 190 269 197 302 q 203 335 212 354 q 222 374 261 425 q 292 465 304 500 q 316 536 316 578 q 316 636 284 671 q 251 706 205 706 q 164 706 137 686 q 110 666 110 645 q 110 633 129 619 q 158 596 158 570 q 158 546 143 531 q 127 515 104 515 q 77 515 58 537 q 40 559 40 595 q 40 651 91 696 q 143 740 222 740 q 302 740 355 690 q 407 641 407 569 q 407 523 389 486 q 375 458 320 408 q 249 343 233 312 q 218 282 216 211 z m 205 105 q 229 105 246 88 q 263 71 263 47 q 263 22 246 4 q 229 -14 205 -14 q 180 -14 163 4 q 146 21 146 47 q 146 72 163 89 q 180 105 205 105 z"},"<":{"x_min":0,"x_max":606,"ha":606,"o":"m 572 83 l 34 310 l 34 368 l 572 594 l 572 524 l 122 339 l 572 154 z"},"'":{"x_min":0,"x_max":204,"ha":204,"o":"m 90 400 l 63 547 q 52 608 52 629 q 52 661 65 675 q 78 690 101 690 q 123 690 137 675 q 152 661 152 636 q 152 618 139 547 l 112 400 z"},"=":{"x_min":0,"x_max":606,"ha":606,"o":"m 34 489 l 573 489 l 573 423 l 34 423 z m 34 257 l 573 257 l 573 192 l 34 192 z"},"a":{"x_min":0,"x_max":556,"ha":556,"o":"m 516 50 l 534 23 q 498 -14 455 -14 q 421 -14 399 4 q 376 22 359 68 q 312 19 277 3 q 242 -14 193 -14 q 123 -14 86 17 q 49 47 49 94 q 49 166 133 213 q 217 260 356 275 l 356 345 q 356 382 326 408 q 296 435 250 435 q 208 435 177 417 q 155 404 155 391 q 155 384 167 368 q 181 349 181 333 q 181 312 167 298 q 153 284 130 284 q 105 284 89 300 q 73 317 73 343 q 73 391 127 431 q 182 471 270 471 q 352 471 395 436 q 438 400 438 350 l 438 100 q 438 66 448 51 q 459 35 476 35 q 495 35 516 50 z m 356 243 q 232 226 180 188 q 142 158 142 104 q 142 67 162 46 q 182 24 214 24 q 271 24 314 68 q 356 112 356 178 z"},"L":{"x_min":0,"x_max":667,"ha":667,"o":"m 31 722 l 366 722 l 366 686 l 286 686 q 267 686 258 676 q 249 666 249 644 l 249 74 q 249 54 260 45 q 271 37 306 37 l 408 37 q 489 37 540 91 q 592 145 615 278 l 649 278 l 633 0 l 31 0 l 31 37 l 90 37 q 121 37 133 48 q 145 60 145 85 l 145 649 q 145 667 135 676 q 125 686 104 686 l 31 686 z"},"3":{"x_min":0,"x_max":556,"ha":556,"o":"m 352 361 q 421 344 460 304 q 510 254 510 180 q 510 96 451 45 q 383 -14 274 -14 q 208 -14 161 8 q 114 29 91 66 q 67 103 67 148 q 67 186 85 207 q 104 229 131 229 q 156 229 171 212 q 186 196 186 167 q 186 149 178 137 q 170 125 151 114 q 130 103 130 92 q 130 78 145 59 q 160 41 189 30 q 218 19 262 19 q 339 19 376 57 q 413 95 413 178 q 413 266 381 302 q 350 339 288 339 q 271 339 246 335 q 226 333 217 333 q 203 333 195 339 q 187 345 187 354 q 187 364 194 370 q 202 375 219 375 l 246 375 l 269 374 q 331 374 362 405 q 394 437 394 503 q 394 585 364 619 q 334 654 275 654 q 221 654 188 634 q 156 615 156 598 q 156 587 175 569 q 201 545 201 519 q 201 499 187 485 q 172 471 149 471 q 125 471 109 490 q 94 508 94 542 q 94 593 131 633 q 184 690 282 690 q 374 690 428 641 q 483 591 483 519 q 483 466 453 428 q 424 390 352 361 z"},";":{"x_min":0,"x_max":278,"ha":278,"o":"m 141 471 q 166 471 183 454 q 200 437 200 412 q 200 388 183 371 q 166 354 142 354 q 116 354 99 371 q 82 388 82 411 q 82 436 99 454 q 116 471 141 471 z m 89 -170 l 73 -147 q 167 -77 167 -18 q 167 -5 156 -5 q 152 -5 145 -8 q 135 -10 128 -10 q 107 -10 91 7 q 75 25 75 50 q 75 73 92 90 q 109 106 134 106 q 166 106 188 81 q 209 56 209 16 q 209 -84 89 -170 z"},"J":{"x_min":0,"x_max":556,"ha":556,"o":"m 207 722 l 526 722 l 526 686 l 480 686 q 454 686 442 676 q 431 666 431 647 l 431 179 q 431 125 404 81 q 378 38 327 12 q 276 -14 212 -14 q 125 -14 70 37 q 15 88 15 162 q 15 217 43 250 q 71 282 111 282 q 145 282 166 261 q 188 240 188 207 q 188 179 170 159 q 152 140 129 140 q 121 140 105 145 q 92 149 87 149 q 79 149 74 142 q 69 135 69 122 q 69 85 106 55 q 143 25 196 25 q 257 25 292 67 q 328 109 328 185 l 328 647 q 328 667 315 676 q 302 686 271 686 l 207 686 z"},"V":{"x_min":0,"x_max":722,"ha":722,"o":"m -4 722 l 300 722 l 300 686 l 247 686 q 214 686 203 678 q 191 670 191 657 q 191 646 200 627 l 204 617 l 394 133 l 562 595 q 567 608 567 628 q 567 655 551 670 q 535 686 507 686 l 458 686 l 458 722 l 725 722 l 725 686 l 703 686 q 679 686 655 663 q 630 640 611 587 l 387 -17 l 352 -17 l 97 628 q 83 661 66 673 q 49 686 19 686 l -4 686 z"},"\"":{"x_min":0,"x_max":389,"ha":389,"o":"m 92 400 l 65 545 q 54 604 54 628 q 54 660 67 675 q 80 690 103 690 q 124 690 139 675 q 153 660 153 636 q 153 615 141 545 l 114 400 z m 274 400 l 247 545 q 235 608 235 631 q 235 661 249 676 q 262 690 285 690 q 307 690 321 675 q 335 661 335 636 q 335 594 325 545 l 297 400 z"},"7":{"x_min":0,"x_max":556,"ha":556,"o":"m 111 689 q 159 677 214 677 l 518 677 l 518 655 q 451 537 418 456 q 385 375 368 300 q 351 226 345 127 q 340 46 336 27 q 332 7 318 -3 q 305 -14 283 -14 q 259 -14 245 3 q 231 20 231 55 q 231 87 243 135 q 254 182 294 277 q 347 404 386 477 l 454 601 l 189 601 q 160 601 145 580 q 131 560 111 458 l 76 458 z"},"S":{"x_min":0,"x_max":630,"ha":630,"o":"m 462 667 l 506 730 l 542 730 l 545 467 l 513 467 q 482 588 423 644 q 364 700 287 700 q 222 700 181 661 q 140 623 140 567 q 140 532 156 506 q 171 480 202 464 q 233 447 319 429 q 440 402 489 375 q 537 349 561 308 q 585 267 585 212 q 585 115 519 51 q 454 -14 350 -14 q 238 -14 155 59 l 100 -9 l 65 -9 l 65 271 l 100 271 q 121 155 192 88 q 263 21 353 21 q 425 21 470 64 q 516 107 516 168 q 516 203 499 229 q 482 255 445 273 q 408 291 299 316 q 179 344 136 379 q 75 429 75 521 q 75 616 135 677 q 196 737 291 737 q 336 737 377 721 q 418 705 462 667 z"},"}":{"x_min":0,"x_max":333,"ha":333,"o":"m 3 -177 q 59 -164 88 -132 q 117 -101 117 -59 q 117 -36 104 23 q 94 71 94 96 q 94 150 133 199 q 171 248 241 273 q 168 299 131 346 q 94 393 94 451 q 94 477 108 540 q 117 579 117 601 q 117 696 3 722 l 3 738 q 90 724 141 669 q 191 614 191 541 q 191 514 180 464 q 168 416 168 394 q 168 352 199 321 q 229 290 282 282 l 282 262 q 230 255 199 224 q 168 193 168 155 q 168 138 180 83 q 191 26 191 0 q 191 -71 138 -127 q 85 -183 3 -194 z"},"Z":{"x_min":0,"x_max":611,"ha":611,"o":"m 73 722 l 565 722 l 565 686 l 152 37 l 309 37 q 376 37 419 59 q 462 81 489 124 q 516 168 538 271 l 572 271 l 559 0 l 36 0 l 36 33 l 453 686 l 304 686 q 243 686 209 671 q 163 652 134 603 q 105 554 94 472 l 60 472 z"},"x":{"x_min":0,"x_max":537,"ha":537,"o":"m 23 458 l 244 458 l 244 424 q 190 422 190 405 q 190 397 199 385 l 278 280 l 355 377 q 364 388 364 397 q 364 418 305 424 l 305 458 l 498 458 l 498 424 q 428 413 391 366 l 301 253 l 442 70 q 457 52 473 44 q 490 37 522 37 l 522 0 l 288 0 l 288 37 l 305 37 q 331 37 343 42 q 351 46 351 52 q 351 57 341 70 l 250 191 l 176 97 q 160 77 160 64 q 160 52 171 46 q 186 37 222 37 l 222 0 l 23 0 l 23 37 q 60 40 79 52 q 111 72 137 104 l 228 219 l 94 393 q 71 422 23 424 z"},")":{"x_min":0,"x_max":333,"ha":333,"o":"m 17 738 q 103 661 142 612 q 204 537 236 451 q 269 366 269 271 q 269 179 237 96 q 206 14 144 -65 q 99 -122 17 -194 l 4 -169 q 69 -101 104 -39 q 138 23 156 98 q 174 173 174 268 q 174 368 157 443 q 139 519 106 578 q 73 638 4 711 z"},"&":{"x_min":0,"x_max":815,"ha":815,"o":"m 343 416 q 407 309 440 259 q 474 210 514 163 q 590 257 590 317 q 590 344 571 359 q 552 375 514 375 l 488 375 l 488 409 l 760 409 l 760 375 l 739 375 q 713 375 696 367 q 679 359 664 343 q 650 327 629 283 q 588 194 541 134 q 607 66 657 66 q 688 66 708 90 q 728 114 735 172 l 765 172 q 765 81 726 34 q 687 -14 626 -14 q 593 -14 558 3 q 523 21 474 65 q 417 21 373 3 q 328 -14 277 -14 q 185 -14 125 45 q 64 104 64 191 q 64 257 103 311 q 141 364 241 416 q 194 511 194 575 q 194 644 244 692 q 294 740 367 740 q 437 740 477 705 q 517 669 517 610 q 517 554 478 507 q 440 460 343 416 z m 325 454 q 395 484 421 519 q 448 554 448 603 q 448 649 424 676 q 399 703 362 703 q 325 703 300 677 q 276 651 276 609 q 276 547 325 454 z m 258 378 q 155 321 155 241 q 155 179 203 112 q 251 44 323 44 q 384 44 447 93 q 400 150 362 205 q 325 261 258 378 z"},"_":{"x_min":0,"x_max":500,"ha":500,"o":"m -6 -75 l 506 -75 l 506 -125 l -6 -125 z"},"v":{"x_min":0,"x_max":537,"ha":537,"o":"m 13 458 l 238 458 l 238 424 q 193 423 180 416 q 168 409 168 396 q 168 385 173 375 l 294 104 l 405 366 q 407 373 407 380 q 407 416 337 424 l 337 458 l 526 458 l 526 424 q 498 421 480 409 q 463 396 454 375 l 286 -14 l 260 -14 l 80 385 q 70 407 56 415 q 42 424 13 424 z"},"O":{"x_min":0,"x_max":778,"ha":778,"o":"m 383 737 q 474 737 554 689 q 634 641 679 555 q 724 469 724 361 q 724 253 679 166 q 633 79 554 31 q 475 -18 386 -18 q 299 -18 223 30 q 146 77 100 166 q 54 254 54 362 q 54 469 99 554 q 144 640 221 689 q 299 737 383 737 z m 391 700 q 295 700 236 621 q 177 542 177 363 q 177 169 238 95 q 298 21 388 21 q 450 21 498 54 q 545 88 573 161 q 601 234 601 354 q 601 483 575 556 q 548 629 500 665 q 451 700 391 700 z"},"(":{"x_min":0,"x_max":333,"ha":333,"o":"m 316 738 l 329 711 q 259 638 226 578 q 193 519 176 443 q 159 368 159 269 q 159 173 177 98 q 195 23 229 -38 q 263 -100 329 -169 l 316 -194 q 237 -125 197 -76 q 132 3 98 90 q 64 177 64 271 q 64 365 96 449 q 127 533 189 609 q 231 662 316 738 z"},"C":{"x_min":0,"x_max":722,"ha":722,"o":"m 579 666 l 612 736 l 643 736 l 656 445 l 623 445 q 591 568 542 626 q 481 699 397 699 q 307 699 250 618 q 192 537 192 343 q 192 181 258 95 q 313 23 414 23 q 502 23 562 79 q 621 136 639 250 l 674 250 q 659 121 585 51 q 512 -18 401 -18 q 311 -18 235 27 q 160 73 115 158 q 69 243 69 345 q 69 453 116 547 q 163 642 235 690 q 308 737 392 737 q 439 737 483 721 q 527 705 579 666 z"},"W":{"x_min":0,"x_max":981,"ha":981,"o":"m 17 722 l 258 722 l 258 686 l 241 686 q 203 686 193 680 q 182 674 182 661 q 182 652 189 633 l 192 624 l 339 166 l 468 589 q 446 661 434 673 q 422 686 386 686 l 342 686 l 342 722 l 644 722 l 644 686 l 612 686 q 571 686 559 679 q 547 672 547 659 q 547 649 550 640 l 700 166 l 823 576 q 830 600 830 622 q 830 655 815 670 q 800 686 771 686 l 748 686 l 748 722 l 975 722 l 975 686 q 945 682 927 671 q 910 661 897 641 q 884 622 871 576 l 693 -17 l 659 -17 l 492 513 l 333 -17 l 297 -17 l 94 624 q 82 662 66 674 q 51 686 17 686 z"},"A":{"x_min":0,"x_max":722,"ha":722,"o":"m 349 737 l 382 737 l 641 77 q 657 37 705 37 l 728 37 l 728 0 l 439 0 l 439 37 l 462 37 q 507 37 526 46 q 539 53 539 67 q 539 76 535 85 l 475 238 l 190 238 l 156 150 q 143 115 143 95 q 143 71 165 54 q 188 37 230 37 l 254 37 l 254 0 l -7 0 l -7 37 q 35 37 59 55 q 83 73 104 125 z m 335 598 l 206 276 l 461 276 z"},"f":{"x_min":0,"x_max":333,"ha":333,"o":"m 189 458 l 303 458 l 303 415 l 189 415 l 189 81 q 189 58 200 49 q 214 37 241 37 l 303 37 l 303 0 l 23 0 l 23 37 l 62 37 q 87 37 98 45 q 108 54 108 73 l 108 415 l 29 415 l 29 458 l 108 458 l 108 492 q 108 613 158 677 q 208 740 283 740 q 338 740 369 713 q 400 687 400 643 q 400 615 385 598 q 370 582 347 582 q 327 582 313 595 q 300 608 300 628 q 300 651 317 666 q 332 678 332 684 q 332 692 321 699 q 310 706 288 706 q 246 706 218 669 q 189 632 189 559 z"},"Q":{"x_min":0,"x_max":778,"ha":778,"o":"m 577 45 q 585 25 594 -10 q 611 -75 627 -94 q 643 -114 663 -114 q 681 -114 695 -93 q 708 -72 709 -24 l 738 -24 q 738 -112 704 -153 q 670 -195 616 -195 q 566 -195 534 -155 q 503 -114 493 0 q 465 -7 440 -10 q 415 -14 392 -14 q 301 -14 224 33 q 147 81 102 169 q 57 257 57 368 q 57 525 159 636 q 251 737 389 737 q 481 737 558 691 q 634 644 680 557 q 726 470 726 362 q 726 263 690 186 q 654 109 577 45 z m 553 112 q 579 162 591 220 q 604 278 604 366 q 604 489 577 560 q 550 632 501 666 q 452 700 391 700 q 330 700 282 666 q 234 632 207 559 q 180 487 180 362 q 180 274 196 211 q 212 148 246 92 q 245 114 245 128 q 245 188 284 228 q 323 267 386 267 q 449 267 492 224 q 524 192 553 112 z m 493 50 q 492 138 470 178 q 442 229 384 229 q 338 229 309 199 q 280 170 280 124 q 280 78 316 37 q 351 21 389 21 q 418 21 444 29 q 470 36 493 50 z"},"w":{"x_min":0,"x_max":778,"ha":778,"o":"m 26 458 l 227 458 l 227 424 l 200 424 q 181 424 172 418 q 164 412 164 401 q 164 391 169 378 l 272 120 l 361 366 q 343 405 329 414 q 314 424 279 424 l 279 458 l 500 458 l 500 424 l 481 424 q 456 424 446 417 q 437 411 437 399 q 437 390 441 378 l 545 120 l 627 350 q 636 373 636 389 q 636 405 623 414 q 610 422 575 424 l 575 458 l 753 458 l 753 424 q 720 418 703 403 q 686 388 674 356 l 542 -14 l 513 -14 l 384 307 l 269 -14 l 241 -14 l 77 391 q 69 410 59 416 q 49 423 26 424 z"},"-":{"x_min":0,"x_max":333,"ha":333,"o":"m 67 265 l 265 265 l 265 190 l 67 190 z"},"E":{"x_min":0,"x_max":722,"ha":722,"o":"m 65 722 l 638 722 l 651 479 l 619 479 q 599 594 557 640 q 515 686 447 686 l 305 686 q 288 686 279 676 q 271 667 271 648 l 271 391 l 333 391 q 382 391 413 426 q 444 462 447 536 l 480 536 l 480 201 l 447 201 q 444 284 413 320 q 381 356 327 356 l 271 356 l 271 69 q 271 53 281 45 q 292 37 316 37 l 428 37 q 610 37 638 269 l 673 269 l 661 0 l 65 0 l 65 37 l 115 37 q 144 37 155 47 q 167 57 167 76 l 167 648 q 167 667 157 676 q 146 686 125 686 l 65 686 z"},"s":{"x_min":0,"x_max":463,"ha":463,"o":"m 87 172 q 118 88 157 55 q 196 23 254 23 q 307 23 336 46 q 364 69 364 105 q 364 125 354 141 q 343 156 325 164 q 306 171 229 186 q 154 201 125 217 q 96 233 79 261 q 63 290 63 323 q 63 373 97 414 q 140 466 218 466 q 278 466 329 429 l 361 463 l 381 463 l 394 300 l 361 300 q 339 369 303 400 q 266 430 212 430 q 166 430 140 407 q 113 385 113 352 q 113 323 138 304 q 162 285 231 273 q 312 260 337 250 q 377 236 399 205 q 421 175 421 131 q 421 70 373 28 q 326 -14 252 -14 q 185 -14 126 31 l 91 -10 l 65 -10 l 55 172 z"},">":{"x_min":0,"x_max":606,"ha":606,"o":"m 34 594 l 572 368 l 572 309 l 34 83 l 34 153 l 484 338 l 34 524 z"},"l":{"x_min":0,"x_max":315,"ha":315,"o":"m 205 730 l 205 67 q 205 54 213 46 q 226 37 243 37 l 292 37 l 292 0 l 33 0 l 33 37 l 79 37 q 101 37 112 47 q 123 58 123 78 l 123 634 q 123 659 110 670 q 92 686 65 686 l 24 686 l 24 722 z"},"8":{"x_min":0,"x_max":556,"ha":556,"o":"m 377 383 q 456 355 490 309 q 525 264 525 199 q 525 121 475 62 q 410 -14 290 -14 q 184 -14 122 37 q 61 88 61 165 q 61 222 96 264 q 131 307 218 337 q 90 392 90 507 q 90 582 148 636 q 206 690 294 690 q 355 690 401 669 q 446 648 469 612 q 493 576 493 536 q 493 444 377 383 z m 340 396 q 391 425 409 454 q 426 482 426 529 q 426 590 392 623 q 357 656 291 656 q 227 656 191 625 q 156 594 156 544 q 156 495 187 466 q 218 437 340 396 z m 255 323 q 186 294 159 257 q 132 221 132 167 q 132 98 173 60 q 213 21 290 21 q 371 21 416 60 q 461 98 461 161 q 461 218 422 248 q 383 277 255 323 z"},"\\":{"x_min":0,"x_max":606,"ha":606,"o":"m 80 722 l 589 0 l 526 0 l 17 722 z"},"e":{"x_min":0,"x_max":500,"ha":500,"o":"m 462 226 l 134 226 q 137 121 173 78 q 215 30 280 30 q 376 30 434 139 l 466 125 q 395 -14 260 -14 q 168 -14 105 53 q 42 119 42 223 q 42 334 104 403 q 166 471 256 471 q 323 471 371 437 q 419 403 444 339 q 461 294 462 226 z m 134 260 l 333 260 q 350 260 360 272 q 370 284 370 313 q 370 367 336 404 q 303 442 257 442 q 207 442 171 396 q 136 351 134 260 z"},"b":{"x_min":0,"x_max":556,"ha":556,"o":"m 174 730 l 174 391 q 203 431 238 451 q 273 471 315 471 q 396 471 451 408 q 507 345 507 242 q 507 130 447 62 q 387 -7 299 -7 q 257 -7 223 10 q 188 26 152 66 q 125 21 99 -7 l 79 0 q 93 56 93 117 l 93 634 q 93 658 76 672 q 59 686 28 686 l 8 686 l 8 722 z m 297 428 q 242 428 208 380 q 173 332 173 221 q 173 116 207 70 q 241 25 296 25 q 346 25 376 70 q 415 126 415 231 q 415 335 381 382 q 348 428 297 428 z"},"%":{"x_min":0,"x_max":833,"ha":833,"o":"m 193 690 q 257 690 298 642 q 338 594 338 508 q 338 425 297 378 q 256 331 194 331 q 132 331 92 379 q 51 426 51 510 q 51 592 92 641 q 133 690 193 690 z m 195 667 q 164 667 144 634 q 125 602 125 512 q 125 420 144 386 q 164 353 194 353 q 225 353 245 386 q 265 419 265 505 q 265 600 246 634 q 227 667 195 667 z m 646 677 l 688 677 l 190 0 l 148 0 z m 635 345 q 699 345 740 297 q 780 249 780 163 q 780 81 739 33 q 699 -14 636 -14 q 574 -14 534 34 q 493 82 493 166 q 493 247 534 296 q 575 345 635 345 z m 637 322 q 606 322 586 290 q 566 257 566 167 q 566 75 586 42 q 605 9 636 9 q 667 9 687 42 q 707 75 707 161 q 707 255 688 289 q 668 322 637 322 z"},"m":{"x_min":0,"x_max":889,"ha":889,"o":"m 61 458 l 192 466 q 203 415 206 368 q 243 422 280 444 q 317 466 362 466 q 409 466 440 441 q 471 416 487 360 q 520 413 560 439 q 600 466 647 466 q 710 466 741 429 q 781 380 781 303 l 781 76 q 781 55 792 48 q 805 37 832 37 l 855 37 l 855 0 l 625 0 l 625 37 l 648 37 q 677 37 689 46 q 701 56 701 76 l 701 303 q 701 354 676 381 q 651 409 610 409 q 580 409 555 393 q 530 376 516 346 q 495 303 495 272 l 495 76 q 495 56 505 46 q 516 37 539 37 l 570 37 l 570 0 l 337 0 l 337 37 l 363 37 q 388 37 400 46 q 413 56 413 71 l 413 282 q 413 349 389 379 q 365 410 325 410 q 273 410 246 375 q 206 325 206 258 l 206 76 q 206 55 215 47 q 229 37 256 37 l 280 37 l 280 0 l 49 0 l 49 37 l 84 37 q 104 37 114 46 q 125 56 125 71 l 125 371 q 125 396 112 408 q 99 420 61 424 z"},"#":{"x_min":0,"x_max":556,"ha":556,"o":"m -17 517 l 147 517 l 191 722 l 253 722 l 209 517 l 385 517 l 430 722 l 492 722 l 448 517 l 547 517 l 547 455 l 436 455 l 397 268 l 547 268 l 547 204 l 385 204 l 342 0 l 279 0 l 323 204 l 144 204 l 103 0 l 40 0 l 83 204 l -17 204 l -17 268 l 96 268 l 135 455 l -17 455 z m 196 455 l 157 268 l 335 268 l 374 455 z"},",":{"x_min":0,"x_max":278,"ha":278,"o":"m 83 -170 l 65 -146 q 159 -75 159 -21 q 159 -13 156 -9 q 154 -5 148 -5 l 138 -7 q 128 -9 123 -9 q 101 -9 84 8 q 68 25 68 50 q 68 74 84 90 q 101 107 127 107 q 159 107 181 82 q 202 57 202 13 q 202 -82 83 -170 z"},"n":{"x_min":0,"x_max":611,"ha":611,"o":"m 33 458 l 185 467 q 194 424 198 366 q 229 416 271 441 q 312 466 365 466 q 411 466 441 448 q 472 430 491 392 q 509 353 509 305 l 509 83 q 509 58 521 47 q 532 37 558 37 l 590 37 l 590 0 l 349 0 l 349 37 l 372 37 q 404 37 417 47 q 430 57 430 78 l 430 273 q 430 337 410 368 q 383 412 327 412 q 272 412 235 368 q 198 323 198 252 l 198 83 q 198 58 210 47 q 221 37 248 37 l 279 37 l 279 0 l 37 0 l 37 37 l 69 37 q 93 37 105 46 q 118 56 118 71 l 118 366 q 118 396 102 411 q 86 426 56 426 l 33 426 z"},"h":{"x_min":0,"x_max":611,"ha":611,"o":"m 21 722 l 194 730 l 194 378 q 230 425 272 448 q 313 471 360 471 q 404 471 439 450 q 466 434 486 392 q 505 351 505 294 l 505 77 q 505 56 516 46 q 526 37 549 37 l 588 37 l 588 0 l 341 0 l 341 37 l 369 37 q 400 37 412 47 q 424 57 424 77 l 424 294 q 424 351 396 383 q 369 415 326 415 q 292 415 263 397 q 234 379 214 342 q 194 305 194 264 l 194 82 q 194 57 205 47 q 215 37 238 37 l 277 37 l 277 0 l 36 0 l 36 37 l 63 37 q 91 37 103 48 q 114 59 114 82 l 114 627 q 114 657 99 671 q 83 686 54 686 l 21 686 z"},"z":{"x_min":0,"x_max":481,"ha":481,"o":"m 74 458 l 437 458 l 437 428 l 149 37 l 289 37 q 337 37 366 67 q 395 97 411 179 l 443 179 l 433 0 l 48 0 l 48 34 l 335 423 l 213 423 q 175 423 156 412 q 138 402 124 378 q 110 354 99 294 l 62 294 z"},"B":{"x_min":0,"x_max":722,"ha":722,"o":"m 47 722 l 424 722 q 535 722 594 673 q 652 625 652 551 q 652 489 611 446 q 570 403 488 378 q 590 357 641 311 q 692 265 692 194 q 692 141 663 99 q 634 58 566 29 q 499 0 413 0 l 47 0 l 47 37 l 107 37 q 134 37 146 45 q 159 54 159 65 l 159 644 q 159 665 146 675 q 134 686 111 686 l 47 686 z m 263 390 l 400 390 q 463 390 500 427 q 538 464 538 549 q 538 601 520 630 q 502 660 468 673 q 434 687 351 687 q 292 687 277 678 q 263 669 263 648 z m 263 354 l 263 76 q 263 56 275 46 q 286 37 316 37 l 403 37 q 490 37 532 75 q 573 113 573 194 q 573 269 530 311 q 487 354 412 354 z"},"K":{"x_min":0,"x_max":778,"ha":778,"o":"m 41 722 l 371 722 l 371 686 l 300 686 q 278 686 266 674 q 253 662 253 644 l 253 309 l 525 599 q 549 625 549 647 q 549 664 533 675 q 517 686 480 686 l 460 686 l 460 722 l 756 722 l 756 686 l 733 686 q 704 686 668 668 q 632 650 602 619 l 435 445 l 674 91 q 694 62 716 49 q 737 37 767 37 l 793 37 l 793 0 l 467 0 l 467 37 l 504 37 q 545 37 558 43 q 572 50 572 61 q 572 70 566 79 l 367 372 l 253 250 l 253 73 q 253 56 263 48 q 279 37 300 37 l 371 37 l 371 0 l 41 0 l 41 37 l 104 37 q 128 37 140 47 q 152 57 152 73 l 152 649 q 152 667 139 676 q 125 686 94 686 l 41 686 z"},"R":{"x_min":0,"x_max":722,"ha":722,"o":"m 25 722 l 398 722 q 507 722 567 673 q 626 624 626 543 q 626 496 603 458 q 579 421 534 399 q 490 376 394 367 q 464 348 490 329 q 517 311 532 282 q 548 253 569 164 q 583 100 600 76 q 613 58 627 58 q 643 58 656 80 q 668 103 671 159 l 705 159 q 695 -7 582 -7 q 546 -7 520 11 q 494 29 481 64 q 471 90 458 202 q 451 267 435 294 q 419 322 385 338 q 352 355 305 355 l 246 355 l 246 71 q 246 53 255 46 q 267 37 292 37 l 361 37 l 361 0 l 25 0 l 25 37 l 96 37 q 120 37 131 46 q 142 55 142 71 l 142 648 q 142 667 130 676 q 119 686 96 686 l 25 686 z m 246 390 l 331 390 q 417 390 466 423 q 514 455 514 538 q 514 595 496 628 q 478 662 448 674 q 418 686 331 686 q 273 686 259 678 q 246 670 246 650 z"},"T":{"x_min":0,"x_max":667,"ha":667,"o":"m 44 722 l 630 722 l 644 449 l 610 449 q 577 690 437 690 q 408 690 398 680 q 387 670 387 648 l 387 71 q 387 53 397 45 q 408 37 431 37 l 504 37 l 504 0 l 168 0 l 168 37 l 251 37 q 268 37 277 45 q 286 53 286 67 l 286 652 q 286 671 274 680 q 263 690 238 690 q 167 690 120 623 q 81 568 64 449 l 28 449 z"},"P":{"x_min":0,"x_max":667,"ha":667,"o":"m 39 722 l 395 722 q 516 722 579 667 q 643 613 643 524 q 643 436 584 390 q 503 326 385 326 l 256 326 l 256 79 q 256 58 267 48 q 280 37 303 37 l 385 37 l 385 0 l 39 0 l 39 37 l 111 37 q 133 37 143 45 q 153 54 153 68 l 153 644 q 153 666 140 676 q 127 686 92 686 l 39 686 z m 256 361 l 354 361 q 448 361 489 400 q 530 439 530 528 q 530 591 512 624 q 493 658 457 674 q 421 690 339 690 q 285 690 271 680 q 256 669 256 644 z"},"|":{"x_min":0,"x_max":606,"ha":606,"o":"m 271 722 l 336 722 l 336 -121 l 271 -121 z"},"t":{"x_min":0,"x_max":389,"ha":389,"o":"m 153 644 l 186 644 l 186 458 l 334 458 l 334 413 l 186 413 l 186 119 q 186 81 204 61 q 222 41 250 41 q 283 41 307 71 q 330 102 334 173 l 367 173 q 364 82 325 37 q 287 -7 225 -7 q 168 -7 136 24 q 104 55 104 105 l 104 413 l 25 413 l 25 447 q 79 456 107 492 q 149 546 153 644 z"},"M":{"x_min":0,"x_max":944,"ha":944,"o":"m 17 722 l 257 722 l 473 152 l 671 722 l 917 722 l 917 686 l 857 686 q 826 686 815 676 q 804 667 804 644 l 804 72 q 804 55 817 46 q 830 37 862 37 l 917 37 l 917 0 l 587 0 l 587 37 l 649 37 q 675 37 688 47 q 701 57 701 72 l 701 686 l 462 0 l 429 0 l 172 683 l 172 158 q 172 111 184 88 q 195 64 217 52 q 239 40 289 37 l 289 0 l 17 0 l 17 37 q 83 41 107 65 q 131 90 131 152 l 131 650 q 131 668 120 677 q 109 686 78 686 l 17 686 z"},"g":{"x_min":0,"x_max":537,"ha":537,"o":"m 383 432 q 432 481 473 481 q 498 481 514 465 q 530 450 530 427 q 530 409 519 397 q 508 385 493 385 q 465 385 456 419 q 452 434 442 434 q 426 434 406 412 q 427 383 435 362 q 443 341 443 316 q 443 274 422 241 q 402 209 354 184 q 307 159 263 159 l 210 159 q 153 159 135 147 q 116 135 116 112 q 116 93 131 83 q 146 72 188 72 l 309 75 q 400 75 441 44 q 481 14 481 -40 q 481 -98 435 -138 q 371 -195 244 -195 q 139 -195 88 -156 q 48 -126 48 -88 q 48 -60 74 -36 q 100 -12 160 0 q 112 12 87 34 q 63 57 63 91 q 63 122 83 145 q 103 168 151 185 q 110 208 89 240 q 68 273 68 315 q 68 381 120 426 q 172 471 256 471 q 290 471 322 461 q 354 452 383 432 z m 255 440 q 211 440 183 408 q 155 376 155 318 q 155 257 183 223 q 211 189 255 189 q 299 189 327 222 q 355 255 355 316 q 355 374 327 407 q 298 440 255 440 z m 284 0 q 194 0 156 -25 q 117 -50 117 -85 q 117 -119 146 -138 q 184 -163 254 -163 q 338 -163 381 -135 q 423 -107 423 -73 q 423 -53 410 -36 q 397 -19 368 -10 q 339 0 284 0 z"},"j":{"x_min":0,"x_max":296,"ha":296,"o":"m 156 731 q 180 731 195 716 q 211 701 211 677 q 211 653 195 638 q 180 622 156 622 q 134 622 117 638 q 101 655 101 677 q 101 699 117 715 q 134 731 156 731 z m 205 464 l 205 27 q 205 -69 152 -132 q 100 -195 36 -195 q 4 -195 -14 -179 q -31 -163 -31 -136 q -31 -112 -17 -97 q -3 -83 19 -83 q 53 -83 63 -127 q 66 -142 70 -145 q 73 -149 81 -149 q 89 -149 98 -141 q 109 -128 116 -98 q 125 -57 125 -17 l 125 368 q 125 395 108 409 q 92 423 59 423 l 18 423 l 18 458 z"},"i":{"x_min":0,"x_max":315,"ha":315,"o":"m 150 730 q 172 730 189 714 q 206 697 206 675 q 206 653 189 637 q 173 621 151 621 q 128 621 112 637 q 96 653 96 675 q 96 697 112 714 q 129 730 150 730 z m 24 458 l 206 463 l 206 69 q 206 53 213 46 q 225 37 242 37 l 293 37 l 293 0 l 34 0 l 34 37 l 82 37 q 104 37 114 47 q 124 58 124 78 l 124 366 q 124 393 108 407 q 92 421 62 421 l 24 421 z"},"y":{"x_min":0,"x_max":537,"ha":537,"o":"m 22 458 l 242 458 l 242 424 l 221 424 q 192 424 182 417 q 171 409 171 395 q 171 389 174 382 l 302 107 l 396 335 q 407 360 407 383 q 407 401 393 411 q 378 421 336 424 l 336 458 l 526 458 l 526 424 q 471 419 452 375 l 283 -19 q 240 -119 196 -157 q 152 -195 102 -195 q 65 -195 43 -175 q 21 -155 21 -125 q 21 -104 35 -89 q 48 -75 69 -75 q 87 -75 100 -87 q 113 -100 113 -117 q 113 -122 111 -131 q 109 -139 109 -142 q 109 -154 124 -154 q 140 -154 160 -142 q 181 -130 198 -104 q 216 -79 260 10 l 86 382 q 77 402 63 411 q 49 421 22 424 z"},"@":{"x_min":0,"x_max":737,"ha":737,"o":"m 552 497 l 493 296 l 472 221 q 465 194 465 178 q 465 161 474 152 q 482 143 496 143 q 529 143 568 174 q 606 205 635 272 q 663 339 663 412 q 663 479 629 539 q 594 599 536 630 q 478 662 401 662 q 306 662 225 613 q 144 564 97 477 q 50 390 50 282 q 50 180 90 106 q 130 33 205 -10 q 280 -53 372 -53 q 481 -53 569 7 q 657 67 698 170 l 728 170 q 693 60 594 -12 q 495 -84 369 -84 q 212 -84 109 20 q 6 125 6 284 q 6 396 58 490 q 111 583 201 637 q 292 690 397 690 q 487 690 553 654 q 620 619 657 553 q 695 487 695 405 q 695 295 631 204 q 568 112 468 112 q 435 112 418 127 q 402 142 402 170 q 402 193 410 229 q 352 159 314 135 q 276 112 246 112 q 215 112 193 137 q 171 163 171 207 q 171 270 210 343 q 250 417 305 458 q 361 500 401 500 q 430 500 447 485 q 465 471 471 442 l 485 488 z m 406 480 q 354 480 296 383 q 239 286 239 221 q 239 193 253 177 q 267 162 288 162 q 314 162 348 189 q 393 228 424 294 q 456 361 456 417 q 456 448 442 464 q 428 480 406 480 z"},".":{"x_min":0,"x_max":278,"ha":278,"o":"m 139 106 q 164 106 181 89 q 198 71 198 47 q 198 21 181 4 q 164 -14 139 -14 q 114 -14 97 4 q 80 21 80 46 q 80 71 97 89 q 114 106 139 106 z"},"p":{"x_min":0,"x_max":574,"ha":574,"o":"m 177 466 q 188 415 190 367 q 224 421 261 443 q 298 466 342 466 q 389 466 431 437 q 474 408 501 353 q 527 297 527 227 q 527 115 462 45 q 408 -14 332 -14 q 289 -14 254 8 q 220 30 193 74 l 193 -111 q 193 -133 203 -142 q 216 -153 240 -153 l 273 -153 l 273 -188 l 30 -188 l 30 -153 l 63 -153 q 87 -153 99 -144 q 110 -135 110 -120 l 110 362 q 110 396 94 409 q 78 423 30 425 l 30 458 z m 319 421 q 266 421 229 370 q 192 319 192 222 q 192 124 228 77 q 264 30 319 30 q 371 30 398 70 q 434 123 434 224 q 434 331 402 376 q 370 421 319 421 z"},"X":{"x_min":0,"x_max":704,"ha":704,"o":"m 18 722 l 314 722 l 314 686 l 280 686 q 242 686 230 679 q 217 673 217 663 q 217 656 231 635 l 370 432 l 476 593 q 496 625 496 644 q 496 663 479 674 q 461 685 413 686 l 413 722 l 675 722 l 675 686 q 632 686 607 671 q 573 651 545 609 l 396 393 l 625 63 q 634 49 649 43 q 663 37 699 37 l 699 0 l 413 0 l 413 37 l 452 37 q 481 37 492 44 q 503 51 503 62 q 503 73 488 94 l 341 309 l 231 152 q 206 115 206 86 q 206 62 221 50 q 236 37 265 37 l 293 37 l 293 0 l 18 0 l 18 37 q 61 38 95 59 q 129 81 162 128 l 314 349 l 117 632 q 94 666 76 676 q 58 685 18 686 z"},"*":{"x_min":0,"x_max":500,"ha":500,"o":"m 263 546 q 281 551 296 560 q 307 566 336 589 q 366 614 379 620 q 392 626 405 626 q 425 626 439 613 q 453 600 453 580 q 453 558 436 544 q 419 530 384 530 l 366 531 l 333 532 q 302 532 270 521 q 295 491 340 463 q 370 444 379 431 q 388 418 388 402 q 388 382 374 368 q 360 354 342 354 q 323 354 309 368 q 294 381 285 417 q 275 458 267 476 q 261 490 250 505 q 240 491 233 476 q 228 464 218 427 q 206 383 198 373 q 184 355 159 355 q 138 355 124 367 q 111 380 111 399 q 111 433 157 463 q 191 485 200 492 q 211 502 229 521 q 203 532 169 532 l 146 531 l 122 530 q 83 530 66 544 q 48 558 48 582 q 48 601 61 613 q 74 626 93 626 q 122 626 165 590 q 188 570 203 561 q 214 554 237 546 l 238 561 q 238 584 225 618 q 204 672 204 688 q 204 710 218 726 q 231 741 250 741 q 270 741 284 727 q 297 712 297 692 q 297 678 278 624 q 265 588 263 546 z"},"Y":{"x_min":0,"x_max":704,"ha":704,"o":"m -6 722 l 311 722 l 311 686 l 275 686 q 231 686 218 679 q 205 672 205 660 q 205 647 212 637 l 396 352 l 527 595 q 536 611 536 630 q 536 655 520 670 q 503 686 472 686 l 438 686 l 438 722 l 714 722 l 714 686 q 667 686 639 669 q 612 652 586 606 l 420 301 l 420 73 q 420 55 430 47 q 444 37 472 37 l 534 37 l 534 0 l 203 0 l 203 37 l 268 37 q 294 37 306 46 q 318 56 318 73 l 318 295 l 94 644 q 79 667 60 676 q 40 685 -6 686 z"},"c":{"x_min":0,"x_max":444,"ha":444,"o":"m 382 136 l 414 126 q 376 -14 246 -14 q 151 -14 90 49 q 30 112 30 217 q 30 338 96 405 q 163 471 252 471 q 320 471 364 434 q 408 397 408 352 q 408 324 391 306 q 375 289 353 289 q 331 289 315 304 q 300 319 300 340 q 300 362 317 381 q 325 391 325 396 q 325 410 306 424 q 287 437 254 437 q 194 437 164 394 q 120 331 120 228 q 120 129 159 79 q 198 28 258 28 q 342 28 382 136 z"},"!":{"x_min":0,"x_max":296,"ha":296,"o":"m 163 212 l 138 212 q 137 299 133 343 q 125 415 108 512 q 89 622 89 655 q 89 698 106 719 q 123 740 151 740 q 180 740 196 720 q 213 700 213 657 q 213 620 193 512 q 176 417 170 355 q 164 293 163 212 z m 151 105 q 176 105 193 88 q 210 70 210 45 q 210 21 193 4 q 175 -14 151 -14 q 126 -14 109 3 q 92 21 92 45 q 92 71 109 88 q 126 105 151 105 z"},"/":{"x_min":0,"x_max":278,"ha":278,"o":"m 278 722 l 63 0 l 0 0 l 215 722 z"},"[":{"x_min":0,"x_max":333,"ha":333,"o":"m 118 722 l 322 722 l 322 686 l 235 686 q 215 686 205 675 q 195 664 195 639 l 195 -101 q 195 -127 206 -139 q 217 -151 235 -151 l 322 -151 l 322 -188 l 118 -188 z"},"6":{"x_min":0,"x_max":556,"ha":556,"o":"m 159 320 q 197 371 239 393 q 281 415 332 415 q 413 415 468 360 q 522 305 522 221 q 522 120 458 53 q 393 -14 297 -14 q 229 -14 177 22 q 124 58 91 134 q 57 210 57 312 q 57 422 98 511 q 139 601 203 645 q 267 690 336 690 q 407 690 457 651 q 499 619 499 575 q 499 545 480 526 q 462 507 436 507 q 411 507 394 523 q 376 539 376 561 q 376 576 388 594 q 399 611 399 621 q 399 635 386 644 q 368 655 337 655 q 290 655 251 625 q 212 595 185 523 q 158 450 158 360 q 158 347 159 320 z m 305 367 q 244 367 205 323 q 166 279 166 199 q 166 112 204 66 q 241 20 299 20 q 357 20 392 63 q 427 107 427 193 q 427 285 395 326 q 362 367 305 367 z"},"r":{"x_min":0,"x_max":444,"ha":444,"o":"m 25 458 l 190 466 l 190 281 q 216 372 253 419 q 291 466 345 466 q 382 466 405 443 q 427 420 427 382 q 427 352 412 334 q 397 317 375 317 q 353 317 339 332 q 326 347 326 372 q 326 388 333 402 q 341 415 341 417 q 341 424 332 424 q 312 424 286 401 q 251 368 232 311 q 203 222 203 169 l 203 71 q 203 54 214 45 q 226 37 254 37 l 312 37 l 312 0 l 28 0 l 28 37 l 74 37 q 97 37 108 46 q 120 55 120 67 l 120 359 q 120 392 106 407 q 92 423 65 423 l 25 423 z"},"2":{"x_min":0,"x_max":556,"ha":556,"o":"m 379 78 q 416 78 431 97 q 447 116 467 203 l 500 203 l 484 0 l 47 0 l 47 26 l 189 188 q 308 317 332 350 q 366 397 381 442 q 397 486 397 522 q 397 582 364 616 q 331 651 271 651 q 205 651 163 619 q 121 587 121 552 q 121 540 127 533 q 133 527 153 522 q 202 510 202 464 q 202 439 186 423 q 169 407 143 407 q 113 407 91 434 q 68 462 68 506 q 68 556 94 597 q 120 638 171 664 q 223 690 283 690 q 342 690 392 665 q 443 639 468 598 q 494 557 494 508 q 494 474 481 439 q 468 405 444 375 q 402 322 357 285 l 229 177 q 180 136 157 107 q 135 78 379 78 z"},"{":{"x_min":0,"x_max":333,"ha":333,"o":"m 332 -177 l 332 -194 q 250 -184 197 -127 q 145 -71 145 0 q 145 26 156 83 q 167 138 167 155 q 167 193 136 224 q 105 255 53 262 l 53 282 q 107 290 137 321 q 167 353 167 394 q 167 416 156 464 q 145 514 145 541 q 145 614 195 669 q 245 724 332 738 l 332 722 q 219 696 219 601 q 219 579 228 540 q 242 477 242 451 q 242 393 205 346 q 167 299 94 273 q 164 248 203 199 q 242 151 242 98 q 242 71 231 23 q 219 -36 219 -58 q 219 -101 248 -132 q 276 -164 332 -177 z"},"9":{"x_min":0,"x_max":556,"ha":556,"o":"m 420 351 q 388 303 346 279 q 303 254 250 254 q 177 254 117 306 q 58 357 58 457 q 58 554 124 622 q 190 690 282 690 q 383 690 450 606 q 518 522 518 370 q 518 244 480 157 q 443 71 381 29 q 320 -14 243 -14 q 168 -14 126 19 q 83 52 83 98 q 83 128 101 147 q 118 166 145 166 q 168 166 185 149 q 202 133 202 111 q 202 95 187 75 q 177 63 177 54 q 177 41 193 31 q 209 21 245 21 q 296 21 334 49 q 373 77 397 141 q 421 205 421 307 z m 283 655 q 229 655 193 609 q 158 563 158 472 q 158 388 193 346 q 229 305 285 305 q 341 305 380 350 q 418 394 418 474 q 418 557 378 606 q 338 655 283 655 z"}," ":{"x_min":0,"x_max":278,"ha":278,"o":""},"I":{"x_min":0,"x_max":407,"ha":407,"o":"m 37 722 l 370 722 l 370 686 l 313 686 q 275 686 265 676 q 255 667 255 636 l 255 89 q 255 56 264 48 q 275 37 306 37 l 370 37 l 370 0 l 37 0 l 37 37 l 100 37 q 133 37 143 46 q 153 56 153 89 l 153 636 q 153 667 144 674 q 130 686 94 686 l 37 686 z"},"H":{"x_min":0,"x_max":833,"ha":833,"o":"m 47 722 l 355 722 l 355 686 l 298 686 q 269 686 260 675 q 250 665 250 624 l 250 401 l 581 401 l 581 624 q 581 666 573 676 q 564 686 532 686 l 479 686 l 479 722 l 786 722 l 786 686 l 730 686 q 709 686 700 680 q 692 675 687 662 q 684 653 684 618 l 684 99 q 684 61 690 53 q 703 37 736 37 l 786 37 l 786 0 l 479 0 l 479 37 l 532 37 q 563 37 575 54 q 581 63 581 103 l 581 354 l 250 354 l 250 99 q 250 61 256 53 q 269 37 298 37 l 355 37 l 355 0 l 47 0 l 47 37 l 106 37 q 122 37 131 43 q 140 49 145 61 q 147 69 147 103 l 147 624 q 147 665 138 675 q 129 686 99 686 l 47 686 z"},"4":{"x_min":0,"x_max":556,"ha":556,"o":"m 381 677 l 413 677 l 413 215 l 525 215 l 525 174 l 413 174 l 413 70 q 413 56 423 48 q 439 37 459 37 l 501 37 l 501 0 l 230 0 l 230 37 l 280 37 q 306 37 318 47 q 330 58 330 79 l 330 174 l 53 174 l 53 221 z m 330 545 l 94 215 l 330 215 z"},"~":{"x_min":0,"x_max":606,"ha":606,"o":"m 544 415 l 570 415 q 569 344 532 304 q 496 264 442 264 q 417 264 389 272 q 361 280 257 323 q 183 354 151 354 q 78 354 62 265 l 36 265 q 40 339 74 377 q 109 416 159 416 q 185 416 212 407 q 263 393 348 355 q 394 335 421 328 q 437 324 455 324 q 491 324 515 347 q 540 370 544 415 z"},"D":{"x_min":0,"x_max":778,"ha":778,"o":"m 34 722 l 407 722 q 490 722 548 693 q 621 656 671 569 q 722 483 722 365 q 722 267 691 189 q 668 129 621 84 q 573 39 505 17 q 454 0 368 0 l 34 0 l 34 37 l 103 37 q 128 37 138 45 q 148 53 148 71 l 148 652 q 148 667 138 677 q 127 686 108 686 l 34 686 z m 296 686 q 274 686 263 676 q 253 667 253 648 l 253 72 q 253 55 265 46 q 277 37 307 37 l 368 37 q 451 37 513 79 q 553 107 574 159 q 603 228 603 350 q 603 531 540 615 q 486 686 378 686 z"},"^":{"x_min":0,"x_max":606,"ha":606,"o":"m 312 690 l 522 335 l 459 335 l 304 607 l 147 335 l 84 335 l 297 690 z"},"0":{"x_min":0,"x_max":556,"ha":556,"o":"m 279 690 q 375 690 438 616 q 517 524 517 339 q 517 167 448 76 q 380 -14 283 -14 q 190 -14 127 62 q 49 157 49 337 q 49 508 123 609 q 182 690 279 690 z m 282 655 q 218 655 182 593 q 146 531 146 337 q 146 147 183 83 q 220 20 283 20 q 347 20 381 79 q 421 148 421 333 q 421 525 383 590 q 345 655 282 655 z"},"F":{"x_min":0,"x_max":667,"ha":667,"o":"m 52 722 l 639 722 l 649 472 l 615 472 q 593 601 552 640 q 506 686 420 686 l 304 686 q 287 686 279 677 q 271 669 271 653 l 271 392 l 333 392 q 385 392 416 426 q 447 460 449 532 l 484 532 l 484 206 l 449 206 q 446 287 416 322 q 386 356 333 356 l 271 356 l 271 81 q 271 57 283 47 q 295 37 324 37 l 399 37 l 399 0 l 52 0 l 52 37 l 126 37 q 148 37 158 46 q 167 55 167 75 l 167 649 q 167 669 157 677 q 147 686 123 686 l 52 686 z"},"`":{"x_min":0,"x_max":333,"ha":333,"o":"m 264 546 l 252 534 l 117 633 q 63 673 63 698 q 63 712 75 725 q 88 737 104 737 q 131 737 153 706 z"},"k":{"x_min":0,"x_max":593,"ha":593,"o":"m 25 722 l 200 730 l 200 231 l 349 360 q 370 379 370 394 q 370 406 357 413 q 338 422 295 423 l 295 458 l 539 458 l 539 423 q 467 419 429 385 l 324 292 l 494 58 q 510 37 548 37 l 574 37 l 574 0 l 324 0 l 324 37 l 349 37 q 376 37 386 42 q 396 46 396 53 q 396 60 391 67 l 267 241 l 200 183 l 200 67 q 200 53 209 46 q 222 37 246 37 l 277 37 l 277 0 l 32 0 l 32 37 l 71 37 q 96 37 107 47 q 119 57 119 74 l 119 639 q 119 661 105 671 q 84 686 50 686 l 25 686 z"},"u":{"x_min":0,"x_max":611,"ha":611,"o":"m 189 466 l 189 163 q 189 107 218 77 q 246 46 290 46 q 345 46 383 91 q 421 135 421 201 l 421 373 q 421 396 405 409 q 388 422 340 423 l 340 458 l 500 466 l 500 90 q 500 64 515 51 q 530 37 556 37 l 585 37 l 585 4 l 431 0 l 421 90 q 380 42 339 18 q 297 -7 255 -7 q 193 -7 151 35 q 108 76 108 174 l 108 373 q 108 399 87 413 q 73 422 27 423 l 27 458 z"},"]":{"x_min":0,"x_max":333,"ha":333,"o":"m 215 -188 l 11 -188 l 11 -151 l 98 -151 q 118 -151 128 -140 q 138 -129 138 -104 l 138 635 q 138 662 127 674 q 117 686 98 686 l 11 686 l 11 722 l 215 722 z"},"U":{"x_min":0,"x_max":815,"ha":815,"o":"m 26 722 l 360 722 l 360 686 l 293 686 q 266 686 255 677 q 245 668 245 650 l 245 242 q 245 178 256 146 q 272 97 317 68 q 361 40 432 40 q 531 40 583 91 q 634 142 634 227 l 634 559 q 634 603 628 625 q 622 648 611 661 q 599 673 582 679 q 564 686 523 686 l 523 722 l 796 722 l 796 686 l 776 686 q 730 686 708 661 q 686 636 686 589 l 686 234 q 686 118 619 56 q 544 -14 420 -14 q 313 -14 251 17 q 190 47 162 104 q 141 148 141 214 l 141 650 q 141 667 130 676 q 118 686 95 686 l 26 686 z"},"o":{"x_min":0,"x_max":500,"ha":500,"o":"m 249 471 q 341 471 404 405 q 466 338 466 229 q 466 154 438 101 q 410 48 358 17 q 306 -14 246 -14 q 157 -14 95 54 q 34 121 34 229 q 34 336 96 404 q 158 471 249 471 z m 249 437 q 194 437 159 387 q 124 337 124 230 q 124 122 158 71 q 193 21 249 21 q 306 21 341 71 q 376 122 376 236 q 376 342 342 389 q 307 437 249 437 z"},"N":{"x_min":0,"x_max":815,"ha":815,"o":"m 41 722 l 213 722 l 649 155 l 649 565 q 649 627 621 657 q 595 685 543 686 l 543 722 l 796 722 l 796 686 q 757 686 738 675 q 719 664 705 636 q 691 607 691 574 l 691 0 l 645 0 l 194 590 l 194 155 q 194 96 224 67 q 254 38 316 37 l 316 0 l 41 0 l 41 37 q 93 39 123 71 q 153 103 153 149 l 153 639 l 145 647 q 121 674 110 679 q 96 686 74 686 l 41 686 z"},"+":{"x_min":0,"x_max":606,"ha":606,"o":"m 34 371 l 271 371 l 271 608 l 336 608 l 336 371 l 573 371 l 573 306 l 336 306 l 336 70 l 271 70 l 271 306 l 34 306 z"},"G":{"x_min":0,"x_max":778,"ha":778,"o":"m 562 666 l 602 737 l 635 737 l 653 449 l 621 449 q 584 574 535 629 q 471 700 389 700 q 326 700 276 665 q 227 629 200 558 q 173 486 173 357 q 173 231 200 161 q 227 90 273 56 q 320 23 383 23 q 469 23 515 71 q 562 119 562 194 l 562 262 q 562 278 550 287 q 537 296 509 296 l 448 296 l 448 330 l 750 330 l 750 296 l 709 296 q 682 296 670 286 q 659 277 659 259 l 659 -17 l 626 -17 q 609 47 590 106 q 553 46 503 16 q 452 -14 388 -14 q 297 -14 219 33 q 141 80 96 165 q 51 250 51 358 q 51 466 96 551 q 142 637 220 687 q 299 737 380 737 q 426 737 468 722 q 509 707 562 666 z"},"q":{"x_min":0,"x_max":556,"ha":556,"o":"m 410 392 q 435 433 465 466 l 482 458 q 469 400 469 333 l 469 -106 q 469 -132 479 -141 q 493 -153 522 -153 l 542 -153 l 542 -188 l 302 -188 l 302 -153 l 334 -153 q 363 -153 375 -142 q 388 -131 388 -106 l 388 67 q 359 27 324 7 q 289 -14 247 -14 q 167 -14 110 53 q 52 121 52 223 q 52 291 82 348 q 111 405 159 436 q 207 466 261 466 q 300 466 335 449 q 371 433 410 392 z m 268 433 q 216 433 182 384 q 148 335 148 232 q 148 126 182 79 q 216 32 267 32 q 299 32 328 52 q 356 73 373 114 q 389 155 389 225 q 389 307 374 348 q 359 390 330 412 q 301 433 268 433 z"},"d":{"x_min":0,"x_max":574,"ha":574,"o":"m 292 722 l 471 730 l 471 104 q 471 68 485 52 q 499 37 526 37 l 558 37 l 558 0 l 402 0 l 390 93 q 362 43 325 18 q 288 -7 241 -7 q 163 -7 108 59 q 53 124 53 231 q 53 348 124 417 q 179 471 250 471 q 294 471 329 449 q 364 427 390 383 l 390 641 q 390 662 374 674 q 358 686 325 686 l 292 686 z m 264 431 q 211 431 180 387 q 149 344 149 241 q 149 129 181 83 q 212 38 262 38 q 315 38 353 89 q 391 140 391 238 q 391 331 351 384 q 315 431 264 431 z"},"1":{"x_min":0,"x_max":556,"ha":556,"o":"m 339 677 l 339 68 q 339 54 349 47 q 363 37 384 37 l 479 37 l 479 0 l 127 0 l 127 37 l 208 37 q 234 37 246 49 q 258 61 258 81 l 258 541 q 258 555 247 565 q 236 575 218 575 l 110 575 l 110 608 q 186 618 233 635 q 281 651 317 677 z"},"5":{"x_min":0,"x_max":556,"ha":556,"o":"m 135 690 q 259 662 337 662 q 374 662 406 669 q 438 676 454 685 q 462 689 465 689 q 470 689 470 682 q 470 665 448 637 q 426 609 388 592 q 350 576 301 576 q 244 576 165 593 l 148 407 q 186 425 219 435 q 253 444 283 444 q 379 444 444 380 q 509 317 509 224 q 509 120 440 53 q 371 -14 260 -14 q 176 -14 123 34 q 70 83 70 149 q 70 189 87 211 q 104 232 130 232 q 156 232 172 215 q 188 198 188 170 q 188 149 180 137 q 172 125 151 118 q 129 109 129 99 q 129 83 144 64 q 159 45 188 33 q 218 21 256 21 q 331 21 370 68 q 409 114 409 219 q 409 314 368 358 q 326 402 262 402 q 232 402 203 391 q 174 380 145 359 q 141 325 132 313 q 124 302 110 302 q 100 302 94 309 q 88 315 88 328 q 88 349 108 370 q 114 376 117 381 l 128 525 q 135 610 135 690 z"}}}
